<svg preserveAspectRatio="none" width="100%" height="100%" overflow="visible" style="display: block;" viewBox="0 0 22 22" fill="none" xmlns="http://www.w3.org/2000/svg">
<g id="Group">
<path id="Vector" d="M13 2.269C13 1.568 12.432 1 11.731 1H10.27C9.568 1 9 1.568 9 2.269C9 2.847 8.604 3.343 8.065 3.555C7.97967 3.58967 7.89533 3.625 7.812 3.661C7.281 3.891 6.65 3.821 6.24 3.412C6.00191 3.17446 5.67932 3.04105 5.343 3.04105C5.00668 3.04105 4.68409 3.17446 4.446 3.412L3.412 4.446C3.17446 4.68409 3.04105 5.00668 3.04105 5.343C3.04105 5.67932 3.17446 6.00191 3.412 6.24C3.822 6.65 3.892 7.28 3.66 7.812C3.62356 7.89573 3.58855 7.98007 3.555 8.065C3.343 8.604 2.847 9 2.269 9C1.568 9 1 9.568 1 10.269V11.731C1 12.432 1.568 13 2.269 13C2.847 13 3.343 13.396 3.555 13.935C3.58967 14.0203 3.62467 14.1047 3.66 14.188C3.891 14.719 3.821 15.35 3.412 15.76C3.17446 15.9981 3.04105 16.3207 3.04105 16.657C3.04105 16.9933 3.17446 17.3159 3.412 17.554L4.446 18.588C4.68409 18.8255 5.00668 18.959 5.343 18.959C5.67932 18.959 6.00191 18.8255 6.24 18.588C6.65 18.178 7.28 18.108 7.812 18.339C7.89533 18.3757 7.97967 18.411 8.065 18.445C8.604 18.657 9 19.153 9 19.731C9 20.432 9.568 21 10.269 21H11.731C12.432 21 13 20.432 13 19.731C13 19.153 13.396 18.657 13.935 18.444C14.0203 18.4107 14.1047 18.376 14.188 18.34C14.719 18.108 15.35 18.179 15.759 18.588C15.9971 18.8258 16.3199 18.9594 16.6565 18.9594C16.9931 18.9594 17.3159 18.8258 17.554 18.588L18.588 17.554C18.8255 17.3159 18.959 16.9933 18.959 16.657C18.959 16.3207 18.8255 15.9981 18.588 15.76C18.178 15.35 18.108 14.72 18.339 14.188C18.3757 14.1047 18.411 14.0203 18.445 13.935C18.657 13.396 19.153 13 19.731 13C20.432 13 21 12.432 21 11.731V10.27C21 9.569 20.432 9.001 19.731 9.001C19.153 9.001 18.657 8.605 18.444 8.066C18.4104 7.98107 18.3754 7.89673 18.339 7.813C18.109 7.282 18.179 6.651 18.588 6.241C18.8255 6.00291 18.959 5.68032 18.959 5.344C18.959 5.00768 18.8255 4.68509 18.588 4.447L17.554 3.413C17.3159 3.17546 16.9933 3.04205 16.657 3.04205C16.3207 3.04205 15.9981 3.17546 15.76 3.413C15.35 3.823 14.72 3.893 14.188 3.662C14.1043 3.62522 14.0199 3.58989 13.935 3.556C13.396 3.343 13 2.846 13 2.269Z" stroke="var(--stroke-0, #80C34A)" stroke-width="2"/>
<path id="Vector_2" d="M15 11C15 12.0609 14.5786 13.0783 13.8284 13.8284C13.0783 14.5786 12.0609 15 11 15C9.93913 15 8.92172 14.5786 8.17157 13.8284C7.42143 13.0783 7 12.0609 7 11C7 9.93913 7.42143 8.92172 8.17157 8.17157C8.92172 7.42143 9.93913 7 11 7C12.0609 7 13.0783 7.42143 13.8284 8.17157C14.5786 8.92172 15 9.93913 15 11Z" stroke="var(--stroke-0, #80C34A)" stroke-width="2"/>
</g>
</svg>
